<svg xmlns="http://www.w3.org/2000/svg" viewBox="0 0 64 64" role="img" aria-label="ExplainBench">
  <rect width="64" height="64" rx="12" fill="#071016"/>
  <rect x="6" y="6" width="52" height="52" rx="9" fill="#10232b" stroke="#59d7cf" stroke-width="2"/>
  <path d="M12 18h18v6H20v5h9v6h-9v5h11v6H12V18Zm21 0h10c6 0 9.5 3 9.5 7.4 0 2.7-1.2 4.8-3.5 6 2.8 1.2 4.5 3.6 4.5 6.7 0 5-3.8 7.9-10.3 7.9H33V18Zm7 5.6v6.1h3.2c2.1 0 3.3-1.1 3.3-3.1 0-1.9-1.2-3-3.3-3H40Zm0 11.4v6.4h4c2.3 0 3.6-1.2 3.6-3.2 0-2.1-1.3-3.2-3.7-3.2H40Z" fill="#f6f0df"/>
</svg>
